<svg width="38" height="38" viewBox="0 0 38 38" fill="none" xmlns="http://www.w3.org/2000/svg">
<path d="M24.8024 21.5864C26.3903 21.5864 27.9489 21.5864 29.5369 21.5864C31.1249 21.5864 32.7129 21.5864 34.3008 21.5864C34.5949 21.5864 34.6831 21.4951 34.6537 21.191C34.6243 20.8259 34.6243 20.4609 34.6243 20.0959C34.6243 18.7575 34.3302 17.4799 33.7127 16.3241C33.0657 15.0769 32.1541 14.134 30.8896 13.5864C29.2134 12.8868 27.4784 12.7347 25.714 13.2214C23.3614 13.8298 21.8323 15.3507 21.1559 17.7233C20.6854 19.3963 20.6854 21.0997 20.9206 22.8031C21.2441 24.9628 22.3616 26.5141 24.273 27.4875C26.3315 28.5521 28.4488 28.613 30.5956 27.9133C31.8601 27.5179 32.8305 26.6662 33.5951 25.6016C33.9185 25.1453 34.242 24.6586 34.3302 24.0502C34.3891 23.8069 34.3302 23.6852 34.0656 23.6852C33.0951 23.6852 32.1247 23.6852 31.1837 23.6852C30.919 23.6852 30.7426 23.7461 30.5956 23.9894C30.2721 24.5369 29.8016 24.9019 29.2134 25.1453C28.8311 25.2974 28.4194 25.3278 28.0077 25.3582C27.2432 25.3886 26.508 25.2061 25.861 24.7803C24.92 24.1415 24.4789 23.1985 24.4201 22.0731C24.4201 21.6472 24.4201 21.5864 24.8318 21.5864H24.8024ZM24.5083 18.7575C24.6553 18.0579 24.92 17.3887 25.4199 16.8716C25.8316 16.4153 26.3315 16.172 26.9197 16.0807C28.1254 15.8374 29.2134 16.0807 30.0956 16.9933C30.5661 17.5104 30.8308 18.1491 30.8896 18.8488C30.8896 19.1225 30.8014 19.2442 30.5367 19.2442C29.5957 19.2442 28.6547 19.2442 27.7137 19.2442C26.7726 19.2442 25.8316 19.2442 24.8906 19.2442C24.5083 19.2442 24.4495 19.1834 24.5377 18.7879L24.5083 18.7575Z" fill="#202020"/>
<path d="M16.6139 17.7542C16.6139 17.7542 16.3879 17.694 16.3879 17.5736C16.3879 17.4232 16.5291 17.4232 16.6139 17.363C17.3485 16.9117 17.9419 16.31 18.281 15.4676C18.62 14.5048 18.6766 13.5421 18.5353 12.5191C18.3657 11.3758 17.9419 10.383 17.066 9.63083C16.0488 8.72824 14.8056 8.33712 13.5341 8.33712C10.4542 8.27695 7.34609 8.33712 4.26623 8.30704C3.81414 8.30704 3.81414 8.30704 3.81414 8.78842C3.81414 11.9776 3.81414 15.1667 3.81414 18.3258C3.78589 21.515 3.78589 24.7041 3.78589 27.8933C3.78589 28.3145 3.81414 28.3746 4.20972 28.3746C4.91611 28.3746 5.65075 28.3746 6.35714 28.3746C7.1483 28.3446 7.9112 28.3746 8.6741 28.3746C9.97385 28.3746 11.2736 28.3746 12.5734 28.3746C13.5623 28.3746 14.5513 28.2543 15.5119 27.9534C16.3596 27.6827 17.0942 27.2013 17.7159 26.5093C18.7896 25.2457 19.2982 23.7413 19.2134 22.0565C19.1286 20.131 18.3375 18.6568 16.6422 17.8143L16.6139 17.7542ZM8.05248 12.0377C8.05248 11.767 8.13724 11.6466 8.4198 11.6466C9.83257 11.6466 11.2454 11.5865 12.6864 11.7068C13.1385 11.7369 13.5623 11.7971 13.9861 12.0077C14.8903 12.489 15.1446 13.4518 14.9186 14.5048C14.7208 15.5278 13.9579 16.0693 12.7994 16.1897C11.98 16.2498 11.1888 16.2198 10.5672 16.2498C9.74781 16.2498 9.12619 16.2498 8.47631 16.2498C8.19375 16.2498 8.08073 16.1596 8.08073 15.8587C8.08073 14.5951 8.08073 13.3315 8.08073 12.0678L8.05248 12.0377ZM14.7208 24.0723C14.2687 24.6138 13.6753 24.8545 13.0255 24.9147C12.0648 25.005 11.1041 24.9448 10.1151 24.9749C9.60653 24.9749 9.09793 24.9749 8.56108 24.9749C8.08073 24.9749 8.05248 24.9749 8.05248 24.4634C8.05248 23.7113 8.05248 22.9591 8.05248 22.2069C8.05248 21.4548 8.05248 20.6725 8.05248 19.9204C8.05248 19.4992 8.10899 19.439 8.47631 19.439C9.97385 19.439 11.4714 19.3788 12.9689 19.4992C13.6188 19.5593 14.2122 19.7399 14.6925 20.2212C15.1164 20.6424 15.2859 21.1539 15.3141 21.7556C15.3707 22.5981 15.2576 23.4104 14.6925 24.0723H14.7208Z" fill="#202020"/>
<path d="M24.1991 11.3944C25.3799 11.3944 26.5319 11.3944 27.7127 11.3944C28.8935 11.3944 30.0742 11.3944 31.255 11.3944C31.4566 11.3944 31.5718 11.3461 31.5718 11.1532C31.5718 10.8155 31.5718 10.4778 31.5718 10.1401C31.5718 9.92306 31.4854 9.85071 31.2262 9.85071C28.8647 9.85071 26.5319 9.85071 24.1703 9.85071C23.9399 9.85071 23.8535 9.92307 23.8535 10.116C23.8535 10.4537 23.8535 10.7914 23.8535 11.1049C23.8535 11.322 23.9399 11.3702 24.1991 11.3702V11.3944Z" fill="#202020"/>
</svg>
