<svg width="24" height="24" viewBox="0 0 24 24" fill="none" xmlns="http://www.w3.org/2000/svg">
<path d="M15.6147 13.6025C16.6434 13.6025 17.6531 13.6025 18.6818 13.6025C19.7105 13.6025 20.7392 13.6025 21.7679 13.6025C21.9584 13.6025 22.0156 13.5434 21.9965 13.3463C21.9775 13.1099 21.9775 12.8734 21.9775 12.6369C21.9775 11.7699 21.787 10.9423 21.3869 10.1935C20.9678 9.38558 20.3773 8.77473 19.5581 8.42004C18.4723 7.96682 17.3483 7.86829 16.2053 8.18357C14.6813 8.57767 13.6907 9.56293 13.2525 11.0999C12.9477 12.1837 12.9477 13.2872 13.1001 14.3907C13.3097 15.7897 14.0336 16.7947 15.2718 17.4253C16.6053 18.115 17.9769 18.1544 19.3676 17.7011C20.1868 17.445 20.8154 16.8932 21.3107 16.2036C21.5203 15.908 21.7298 15.5927 21.787 15.1986C21.8251 15.041 21.787 14.9621 21.6155 14.9621C20.9869 14.9621 20.3582 14.9621 19.7486 14.9621C19.5772 14.9621 19.4629 15.0015 19.3676 15.1592C19.1581 15.5139 18.8533 15.7503 18.4723 15.908C18.2246 16.0065 17.9579 16.0262 17.6912 16.0459C17.1959 16.0656 16.7196 15.9474 16.3005 15.6715C15.6909 15.2577 15.4052 14.6468 15.3671 13.9178C15.3671 13.6419 15.3671 13.6025 15.6338 13.6025H15.6147ZM15.4242 11.7699C15.5195 11.3167 15.6909 10.8832 16.0148 10.5482C16.2815 10.2526 16.6053 10.095 16.9863 10.0359C17.7674 9.87821 18.4723 10.0359 19.0438 10.627C19.3486 10.962 19.52 11.3758 19.5581 11.829C19.5581 12.0064 19.501 12.0852 19.3295 12.0852C18.7199 12.0852 18.1103 12.0852 17.5007 12.0852C16.8911 12.0852 16.2815 12.0852 15.6719 12.0852C15.4242 12.0852 15.3861 12.0458 15.4433 11.7896L15.4242 11.7699Z" fill="white"/>
<path d="M10.3101 11.1199C10.3101 11.1199 10.1637 11.081 10.1637 11.003C10.1637 10.9055 10.2552 10.9055 10.3101 10.8666C10.786 10.5742 11.1704 10.1844 11.3901 9.63868C11.6097 9.015 11.6463 8.3913 11.5548 7.72863C11.445 6.988 11.1704 6.34483 10.603 5.85757C9.94404 5.27286 9.13865 5.01949 8.31496 5.01949C6.3198 4.98051 4.30633 5.01949 2.31117 5C2.0183 5 2.0183 5 2.0183 5.31184C2.0183 7.37781 2.0183 9.44378 2.0183 11.4903C2 13.5562 2 15.6222 2 17.6882C2 17.961 2.0183 18 2.27456 18C2.73217 18 3.20808 18 3.66568 18C4.1782 17.9805 4.67242 18 5.16663 18C6.00863 18 6.85062 18 7.69262 18C8.33326 18 8.97391 17.922 9.59626 17.7271C10.1454 17.5517 10.6213 17.2399 11.024 16.7916C11.7195 15.973 12.049 14.9985 11.9941 13.907C11.9392 12.6597 11.4267 11.7046 10.3284 11.1589L10.3101 11.1199ZM4.76394 7.41679C4.76394 7.24138 4.81885 7.16342 5.00189 7.16342C5.91711 7.16342 6.83232 7.12444 7.76583 7.2024C8.0587 7.22189 8.33326 7.26087 8.60783 7.3973C9.19356 7.70915 9.3583 8.33283 9.21187 9.01499C9.08374 9.67766 8.58952 10.0285 7.83905 10.1064C7.30823 10.1454 6.79571 10.1259 6.39302 10.1454C5.86219 10.1454 5.4595 10.1454 5.0385 10.1454C4.85546 10.1454 4.78224 10.087 4.78224 9.89205C4.78224 9.07346 4.78224 8.25487 4.78224 7.43628L4.76394 7.41679ZM9.08374 15.2129C8.79087 15.5637 8.40648 15.7196 7.98548 15.7586C7.36314 15.8171 6.7408 15.7781 6.10015 15.7976C5.77067 15.7976 5.4412 15.7976 5.09342 15.7976C4.78224 15.7976 4.76394 15.7976 4.76394 15.4663C4.76394 14.979 4.76394 14.4918 4.76394 14.0045C4.76394 13.5172 4.76394 13.0105 4.76394 12.5232C4.76394 12.2504 4.80055 12.2114 5.0385 12.2114C6.00863 12.2114 6.97875 12.1724 7.94887 12.2504C8.36987 12.2894 8.75426 12.4063 9.06543 12.7181C9.34 12.991 9.44982 13.3223 9.46813 13.7121C9.50473 14.2579 9.43152 14.7841 9.06543 15.2129H9.08374Z" fill="white"/>
<path d="M15.2239 7C15.9888 7 16.7351 7 17.5 7C18.2649 7 19.0298 7 19.7948 7C19.9254 7 20 6.96875 20 6.84375C20 6.625 20 6.40625 20 6.1875C20 6.04687 19.944 6 19.7761 6C18.2463 6 16.7351 6 15.2052 6C15.056 6 15 6.04688 15 6.17188C15 6.39063 15 6.60938 15 6.8125C15 6.95313 15.056 6.98437 15.2239 6.98437V7Z" fill="white"/>
</svg>
