<svg width="38" height="38" viewBox="0 0 38 38" fill="none" xmlns="http://www.w3.org/2000/svg">
<path d="M6.87329 18.6234C6.87329 16.4182 6.87329 14.242 6.87329 12.0367C6.87329 11.0502 7.05923 10.0636 7.64803 9.22215C8.54672 7.91642 9.84828 7.16201 11.4907 7.10398C14.1558 7.01693 16.7899 7.04595 19.455 7.01694C21.5933 7.01694 23.7625 7.01694 25.9008 7.01694C27.0784 7.01694 28.225 7.133 29.2167 7.74234C30.5802 8.5548 31.3859 9.74446 31.4789 11.2533C31.5719 13.2264 31.5409 15.1995 31.5719 17.1436C31.5719 19.8131 31.5719 22.4826 31.5719 25.1521C31.5719 26.2257 31.3859 27.2412 30.7042 28.1407C29.8055 29.3884 28.5039 30.0848 26.9235 30.1138C22.6159 30.1719 18.3394 30.1719 14.0319 30.1719C13.0092 30.1719 11.9556 30.1719 10.9329 30.0268C8.82563 29.7657 7.05923 28.0247 6.96626 25.9935C6.87329 23.9044 6.90428 21.8152 6.87329 19.726C6.87329 19.3488 6.87329 18.9426 6.87329 18.5654V18.6234ZM19.7649 25.6453C19.7649 25.6453 19.7649 25.3842 19.7649 25.2681C19.7649 23.7303 19.7649 22.2214 19.7649 20.6836C19.7649 19.8421 20.2607 19.1457 21.0045 18.9136C22.492 18.4493 23.6386 19.2037 23.6386 20.6836C23.6386 22.2214 23.6386 23.7593 23.6386 25.2971C23.6386 25.4132 23.6386 25.5293 23.6386 25.6453H26.6136C26.6136 23.5272 26.6756 21.467 26.6136 19.3778C26.5826 18.4493 26.1487 17.6078 25.343 16.9985C23.6386 15.7508 21.2524 15.9539 19.7959 17.4628C19.7339 17.5208 19.7029 17.5498 19.579 17.6369V16.3602H16.7899V25.6163H19.7339L19.7649 25.6453ZM12.0175 25.6453H15.0545V16.4182H12.0175V25.6453ZM11.8006 13.3135C11.8006 14.242 12.5753 14.9674 13.536 14.9674C14.4967 14.9674 15.3024 14.213 15.3024 13.3135C15.3024 12.4139 14.5277 11.6885 13.567 11.6595C12.5753 11.6595 11.8006 12.3559 11.8006 13.2844V13.3135Z" fill="#202020"/>
</svg>
