<svg width="24" height="24" viewBox="0 0 24 24" fill="none" xmlns="http://www.w3.org/2000/svg">
<path d="M4 11.5188C4 10.0902 4 8.68045 4 7.25187C4 6.61278 4.12045 5.97368 4.50188 5.42856C5.08407 4.5827 5.92723 4.09398 6.99122 4.05639C8.71769 4 10.4241 4.0188 12.1506 4C13.5358 4 14.941 4 16.3262 4C17.0891 4 17.8319 4.07519 18.4743 4.46993C19.3576 4.99624 19.8795 5.76692 19.9398 6.74436C20 8.02256 19.9799 9.30075 20 10.5602C20 12.2895 20 14.0188 20 15.7481C20 16.4436 19.8795 17.1015 19.4379 17.6842C18.8557 18.4925 18.0125 18.9436 16.9887 18.9624C14.1982 19 11.4279 19 8.63739 19C7.97491 19 7.29235 19 6.62986 18.906C5.26474 18.7369 4.12045 17.609 4.06023 16.2932C4 14.9399 4.02008 13.5865 4 12.2331C4 11.9887 4 11.7256 4 11.4812V11.5188ZM12.3513 16.0677C12.3513 16.0677 12.3513 15.8985 12.3513 15.8233C12.3513 14.8271 12.3513 13.8496 12.3513 12.8534C12.3513 12.3083 12.6725 11.8571 13.1543 11.7068C14.1179 11.406 14.8607 11.8947 14.8607 12.8534C14.8607 13.8496 14.8607 14.8459 14.8607 15.8421C14.8607 15.9173 14.8607 15.9925 14.8607 16.0677H16.788C16.788 14.6955 16.8281 13.3609 16.788 12.0075C16.7679 11.406 16.4868 10.8609 15.9649 10.4662C14.8607 9.65789 13.3149 9.78947 12.3714 10.7669C12.3312 10.8045 12.3112 10.8233 12.2309 10.8797V10.0526H10.4241V16.0489H12.3312L12.3513 16.0677ZM7.3325 16.0677H9.29987V10.0902H7.3325V16.0677ZM7.19197 8.07895C7.19197 8.68045 7.69385 9.15037 8.31618 9.15037C8.93852 9.15037 9.46048 8.66165 9.46048 8.07895C9.46048 7.49624 8.95859 7.02631 8.33626 7.00752C7.69385 7.00752 7.19197 7.45864 7.19197 8.06015V8.07895Z" fill="white"/>
</svg>
