<svg width="38" height="38" viewBox="0 0 38 38" fill="none" xmlns="http://www.w3.org/2000/svg">
<path d="M31.5719 24.7745C31.5719 25.3122 31.4224 25.8202 31.1832 26.2683L23.3789 17.5442L31.0935 10.7919C31.3925 11.2699 31.5719 11.8376 31.5719 12.4351V24.7745ZM19.2226 19.1276L29.9572 9.74617C29.5087 9.50715 29.0303 9.35776 28.492 9.35776H9.95314C9.41491 9.35776 8.90659 9.50715 8.48797 9.74617L19.2226 19.1276ZM22.2127 18.56L19.7309 20.741C19.7309 20.741 19.402 20.9203 19.2226 20.9203C19.0432 20.9203 18.8638 20.8605 18.7143 20.741L16.2324 18.56L8.33846 27.4037C8.81688 27.7024 9.35511 27.8817 9.95314 27.8817H28.492C29.0901 27.8817 29.6582 27.7024 30.1067 27.4037L22.2127 18.56ZM7.35171 10.7919C7.0527 11.2699 6.87329 11.8376 6.87329 12.4351V24.7745C6.87329 25.3122 7.0228 25.8202 7.26201 26.2683L15.0663 17.5442L7.35171 10.7919Z" fill="#202020"/>
</svg>
