<svg width="24" height="24" viewBox="0 0 24 24" fill="none" xmlns="http://www.w3.org/2000/svg">
<path d="M20 15.9871C20 16.3355 19.9031 16.6645 19.7482 16.9548L14.6925 11.3032L19.6901 6.92903C19.8838 7.23871 20 7.60646 20 7.99355V15.9871ZM12 12.329L18.954 6.25161C18.6634 6.09678 18.3535 6 18.0048 6H5.99516C5.64649 6 5.31719 6.09678 5.046 6.25161L12 12.329ZM13.937 11.9613L12.3293 13.3742C12.3293 13.3742 12.1162 13.4903 12 13.4903C11.8838 13.4903 11.7676 13.4516 11.6707 13.3742L10.063 11.9613L4.94915 17.6903C5.25908 17.8839 5.60775 18 5.99516 18H18.0048C18.3923 18 18.7603 17.8839 19.0508 17.6903L13.937 11.9613ZM4.30993 6.92903C4.11622 7.23871 4 7.60646 4 7.99355V15.9871C4 16.3355 4.09685 16.6645 4.25182 16.9548L9.30751 11.3032L4.30993 6.92903Z" fill="white"/>
</svg>
