<svg width="24" height="24" viewBox="0 0 24 24" fill="none" xmlns="http://www.w3.org/2000/svg">
<path d="M4.60731 3.65208L3.75169 4.97162C3.75169 4.97162 0.523652 9.15016 7.44643 15.7295C7.44643 15.7295 7.46587 15.7478 7.48532 15.7662C7.48532 15.7662 7.50477 15.7845 7.52421 15.8028C14.5053 22.3455 18.939 19.2849 18.939 19.2849L20.3391 18.4786C21.1364 17.9104 21.2336 16.8108 20.5141 16.1327L18.8418 14.5566C18.2584 14.0068 17.3444 13.9518 16.6833 14.41L14.9137 15.4729C14.9137 15.4729 13.7275 16.1327 10.3828 12.9988C7.05751 9.86491 7.75756 8.72864 7.75756 8.72864L8.88543 7.06089C9.37158 6.43777 9.31324 5.57641 8.72986 5.0266L7.05751 3.45049C6.35745 2.79072 5.17125 2.86402 4.56842 3.61543L4.60731 3.65208Z" fill="white"/>
<path d="M13 6.85392C14.1386 5.71536 16.0075 5.71536 17.1461 6.85392C18.2846 7.99248 18.2846 9.86144 17.1461 11" fill="white"/>
</svg>
