<svg width="38" height="38" viewBox="0 0 38 38" fill="none" xmlns="http://www.w3.org/2000/svg">
<path d="M7.81098 5.98688L6.49019 8.0238C6.49019 8.0238 1.50719 14.4741 12.1936 24.6304C12.1936 24.6304 12.2236 24.6587 12.2537 24.6869C12.2537 24.6869 12.2837 24.7152 12.3137 24.7435C23.0902 34.8433 29.9343 30.1187 29.9343 30.1187L32.0956 28.8739C33.3263 27.9969 33.4764 26.2995 32.3657 25.2528L29.7842 22.8198C28.8837 21.971 27.4728 21.8862 26.4522 22.5934L23.7205 24.2343C23.7205 24.2343 21.8894 25.2528 16.7263 20.4151C11.5933 15.5774 12.6739 13.8234 12.6739 13.8234L14.415 11.2489C15.1654 10.287 15.0753 8.95739 14.1748 8.10867L11.5933 5.67568C10.5126 4.65722 8.6815 4.77039 7.75094 5.9303L7.81098 5.98688Z" fill="#202020"/>
<path d="M20.7664 10.9294C22.5239 9.17188 25.4089 9.17188 27.1665 10.9294C28.9241 12.687 28.9241 15.572 27.1665 17.3296" fill="#202020"/>
</svg>
