<svg width="83" height="46" viewBox="0 0 83 46" fill="none" xmlns="http://www.w3.org/2000/svg">
<g id="Logo" clip-path="url(#clip0_1_114)">
<path id="Vector" d="M40.1849 12.7112V21.0659H36.6778V19.7535H36.5778C35.7626 20.898 34.4552 21.6686 32.5786 21.6686C29.6945 21.6686 27.6795 19.9595 27.6795 17.5027C27.6795 15.0459 29.8945 13.5658 33.1939 13.4818L36.6778 13.3445V12.7112C36.6778 11.315 35.055 10.7427 34.086 10.7427C32.7939 10.7427 31.4865 11.6431 31.4865 12.6731H27.9794C27.9794 9.74324 30.5482 7.62216 34.086 7.62216C37.6238 7.62216 40.1926 9.66695 40.1926 12.7112H40.1849ZM36.6778 16.5185V15.4732L33.3707 15.6334C32.3017 15.725 31.448 16.2209 31.448 17.1212C31.448 17.8232 32.0941 18.4794 33.3554 18.4794C35.2089 18.4794 36.4471 17.663 36.6701 16.5109L36.6778 16.5185Z" fill="#151515"/>
<path id="Vector_2" d="M44.8455 34.7537C45.1378 36.1881 46.0069 37.4928 47.7835 37.4928C48.9294 37.4928 49.6985 36.9434 50.183 36.1652H53.9362C53.0594 38.8738 50.7752 40.6134 47.7835 40.6134C43.9303 40.6134 41.2385 37.7293 41.2385 33.594C41.2385 29.4586 43.9303 26.5746 47.7835 26.5746C51.6366 26.5746 54.3284 29.4662 54.3284 33.594C54.3284 33.9907 54.2976 34.3798 54.2438 34.7537H44.8378H44.8455ZM50.6829 32.2664C50.3599 30.9006 49.4831 29.6875 47.7835 29.6875C46.0838 29.6875 45.207 30.893 44.884 32.2664H50.6906H50.6829Z" fill="#151515"/>
<path id="Vector_3" d="M64.5957 26.6814V29.8477C64.4111 29.8172 64.2112 29.8019 64.0112 29.8019C61.827 29.8019 60.3504 30.8854 60.2888 33.4337V40.1785H56.7972V27.1773H60.2888V28.7185H60.4042C61.3194 27.4291 62.7191 26.6814 64.5957 26.6814Z" fill="#151515"/>
<path id="Vector_4" d="M50.6137 7.5535V10.7199C50.4291 10.6893 50.2292 10.6741 50.0292 10.6741C47.845 10.6741 46.3683 11.7575 46.3068 14.3059V21.0506H42.8151V8.04943H46.3068V9.59065H46.4222C47.3374 8.30122 48.7371 7.5535 50.6137 7.5535Z" fill="#151515"/>
<path id="Vector_5" d="M83 33.8C83 37.9353 80.7081 40.8194 77.4318 40.8194C75.8475 40.8194 74.4939 40.1403 73.5248 38.9729H73.4018V40.1937H69.9101V23.2632L73.4018 22.6833V28.6346H73.5171C74.4939 27.4596 75.8475 26.7805 77.4395 26.7805C80.7158 26.7805 83.0077 29.6646 83.0077 33.8H83ZM79.5007 33.8C79.5007 32.007 78.7008 29.9011 76.4474 29.9011C74.1939 29.9011 73.3941 32.007 73.3941 33.8C73.3941 35.593 74.1939 37.6988 76.4474 37.6988C78.7008 37.6988 79.5007 35.593 79.5007 33.8Z" fill="#151515"/>
<path id="Vector_6" d="M13.0976 33.594C13.0976 37.7293 10.4058 40.6134 6.55263 40.6134C2.6995 40.6134 0 37.7293 0 33.594C0 29.4586 2.69181 26.5746 6.54494 26.5746C10.3981 26.5746 13.0899 29.4586 13.0899 33.594H13.0976ZM9.60591 33.594C9.60591 31.801 8.80606 29.6951 6.55263 29.6951C4.2992 29.6951 3.49935 31.801 3.49935 33.594C3.49935 35.387 4.2992 37.4928 6.55263 37.4928C8.80606 37.4928 9.60591 35.387 9.60591 33.594Z" fill="#151515"/>
<path id="Vector_7" d="M25.6722 43.9552C25.6722 45.0844 24.7493 46 23.611 46C22.4728 46 21.5499 45.0844 21.5499 43.9552C21.5499 42.826 22.4728 41.9104 23.611 41.9104C24.7493 41.9104 25.6722 42.826 25.6722 43.9552Z" fill="#151515"/>
<path id="Vector_8" d="M15.4202 2.04478C15.4202 0.915575 16.3431 0 17.4814 0C18.6196 0 19.5425 0.915575 19.5425 2.04478C19.5425 3.17399 18.6196 4.08957 17.4814 4.08957C16.3431 4.08957 15.4202 3.17399 15.4202 2.04478Z" fill="#151515"/>
<path id="Vector_9" d="M37.47 27.1773L31.4557 37.2486V27.1773H27.9564V40.1785H29.7022L29.6945 40.1937H33.7322L41.2308 27.1773H37.47Z" fill="#151515"/>
<path id="Vector_10" d="M15.7279 40.1785H19.2195V23.8965L15.7279 24.4992V40.1785Z" fill="#151515"/>
<path id="Vector_11" d="M19.2195 5.8139L15.7279 6.37851V22.7368L19.2195 22.1264V5.8139Z" fill="#151515"/>
<path id="Vector_12" d="M21.8421 40.1785H25.3338V22.8436L21.8421 23.4463V40.1785Z" fill="#151515"/>
<path id="Vector_13" d="M25.3338 2.04477L21.8421 2.63989V21.6686L25.3338 21.0658V2.04477Z" fill="#151515"/>
<path id="Vector_14" d="M3.49166 19.3339H3.61471C4.59146 20.4936 5.93736 21.1803 7.52168 21.1803C10.798 21.1803 13.0899 18.2962 13.0899 14.1609C13.0899 10.0255 10.798 7.14148 7.52168 7.14148C5.92967 7.14148 4.57607 7.82816 3.59933 8.99552H3.48397V7.75949H0V25.4453L3.49166 24.8426V19.3339ZM6.54494 10.2544C8.79837 10.2544 9.59822 12.3603 9.59822 14.1533C9.59822 15.9463 8.79837 18.0521 6.54494 18.0521C4.29151 18.0521 3.49166 15.9463 3.49166 14.1533C3.49166 12.3603 4.29151 10.2544 6.54494 10.2544Z" fill="#151515"/>
</g>
<defs>
<clipPath id="clip0_1_114">
<rect width="83" height="46" fill="white"/>
</clipPath>
</defs>
</svg>
