<svg width="167" height="93" viewBox="0 0 167 93" fill="none" xmlns="http://www.w3.org/2000/svg">
<path d="M80.3697 25.6988V42.5897H73.3556V39.9365H73.1556C71.5252 42.2503 68.9103 43.8083 65.1571 43.8083C59.389 43.8083 55.3589 40.353 55.3589 35.386C55.3589 30.419 59.7889 27.4265 66.3877 27.2568L73.3556 26.9791V25.6988C73.3556 22.8759 70.1101 21.719 68.172 21.719C65.5878 21.719 62.9729 23.5392 62.9729 25.6217H55.9588C55.9588 19.6983 61.0963 15.41 68.172 15.41C75.2476 15.41 80.3851 19.5441 80.3851 25.6988H80.3697ZM73.3556 33.3961V31.2828L66.7415 31.6067C64.6034 31.7919 62.896 32.7945 62.896 34.6147C62.896 36.0339 64.1881 37.3604 66.7107 37.3604C70.4177 37.3604 72.8942 35.7099 73.3402 33.3807L73.3556 33.3961Z" fill="white"/>
<path d="M89.6911 70.2629C90.2756 73.1629 92.0137 75.8006 95.5669 75.8006C97.8588 75.8006 99.397 74.69 100.366 73.1166H107.872C106.119 78.5926 101.55 82.1096 95.5669 82.1096C87.8607 82.1096 82.4771 76.2788 82.4771 67.9182C82.4771 59.5576 87.8607 53.7268 95.5669 53.7268C103.273 53.7268 108.657 59.573 108.657 67.9182C108.657 68.7203 108.595 69.507 108.488 70.2629H89.6757H89.6911ZM101.366 65.2342C100.72 62.473 98.9663 60.0204 95.5669 60.0204C92.1676 60.0204 90.414 62.4576 89.768 65.2342H101.381H101.366Z" fill="white"/>
<path d="M129.191 53.9427V60.3443C128.822 60.2826 128.422 60.2518 128.022 60.2518C123.654 60.2518 120.701 62.4422 120.578 67.5943V81.2304H113.594V54.9454H120.578V58.0613H120.808C122.639 55.4544 125.438 53.9427 129.191 53.9427Z" fill="white"/>
<path d="M101.227 15.2712V21.6728C100.858 21.6111 100.458 21.5802 100.058 21.5802C95.6899 21.5802 92.7366 23.7707 92.6136 28.9228V42.5589H85.6302V16.2739H92.6136V19.3898H92.8443C94.6747 16.7829 97.4742 15.2712 101.227 15.2712Z" fill="white"/>
<path d="M166 68.3347C166 76.6953 161.416 82.5261 154.864 82.5261C151.695 82.5261 148.988 81.1533 147.05 78.7932H146.804V81.2613H139.82V47.0322L146.804 45.8599V57.8917H147.034C148.988 55.5162 151.695 54.1433 154.879 54.1433C161.432 54.1433 166.015 59.9741 166.015 68.3347H166ZM159.001 68.3347C159.001 64.7098 157.402 60.4523 152.895 60.4523C148.388 60.4523 146.788 64.7098 146.788 68.3347C146.788 71.9597 148.388 76.2171 152.895 76.2171C157.402 76.2171 159.001 71.9597 159.001 68.3347Z" fill="white"/>
<path d="M26.1951 67.9182C26.1951 76.2788 20.8115 82.1096 13.1053 82.1096C5.399 82.1096 0 76.2788 0 67.9182C0 59.5576 5.38362 53.7268 13.0899 53.7268C20.7961 53.7268 26.1798 59.5576 26.1798 67.9182H26.1951ZM19.2118 67.9182C19.2118 64.2932 17.6121 60.0358 13.1053 60.0358C8.59841 60.0358 6.9987 64.2932 6.9987 67.9182C6.9987 71.5432 8.59841 75.8006 13.1053 75.8006C17.6121 75.8006 19.2118 71.5432 19.2118 67.9182Z" fill="white"/>
<path d="M51.3444 88.866C51.3444 91.1489 49.4985 93 47.222 93C44.9455 93 43.0997 91.1489 43.0997 88.866C43.0997 86.583 44.9455 84.7319 47.222 84.7319C49.4985 84.7319 51.3444 86.583 51.3444 88.866Z" fill="white"/>
<path d="M30.8405 4.13402C30.8405 1.85105 32.6863 0 34.9628 0C37.2393 0 39.0851 1.85105 39.0851 4.13402C39.0851 6.41698 37.2393 8.26804 34.9628 8.26804C32.6863 8.26804 30.8405 6.41698 30.8405 4.13402Z" fill="white"/>
<path d="M74.94 54.9454L62.9114 75.307V54.9454H55.9127V81.2304H59.4044L59.389 81.2612H67.4644L82.4617 54.9454H74.94Z" fill="white"/>
<path d="M31.4557 81.2304H38.439V48.3125L31.4557 49.5311V81.2304Z" fill="white"/>
<path d="M38.439 11.7542L31.4557 12.8956V45.9678L38.439 44.7337V11.7542Z" fill="white"/>
<path d="M43.6842 81.2304H50.6675V46.1838L43.6842 47.4024V81.2304Z" fill="white"/>
<path d="M50.6675 4.13403L43.6842 5.33722V43.8083L50.6675 42.5897V4.13403Z" fill="white"/>
<path d="M6.98332 39.0881H7.22943C9.18291 41.4328 11.8747 42.821 15.0434 42.821C21.596 42.821 26.1798 36.9902 26.1798 28.6296C26.1798 20.269 21.596 14.4382 15.0434 14.4382C11.8593 14.4382 9.15215 15.8265 7.19867 18.1866H6.96794V15.6877H0V51.4439L6.98332 50.2253V39.0881ZM13.0899 20.7318C17.5967 20.7318 19.1964 24.9892 19.1964 28.6142C19.1964 32.2392 17.5967 36.4966 13.0899 36.4966C8.58302 36.4966 6.98332 32.2392 6.98332 28.6142C6.98332 24.9892 8.58302 20.7318 13.0899 20.7318Z" fill="white"/>
</svg>
